<svg width="16" height="17" viewBox="0 0 16 17" fill="none" xmlns="http://www.w3.org/2000/svg">
<path d="M13 10.3611V8.61108C13 8.01435 12.7629 7.44205 12.341 7.02009C11.919 6.59814 11.3467 6.36108 10.75 6.36108H9.75C9.55109 6.36108 9.36032 6.28207 9.21967 6.14141C9.07902 6.00076 9 5.81 9 5.61108V4.61108C9 4.01435 8.76295 3.44205 8.34099 3.02009C7.91903 2.59814 7.34674 2.36108 6.75 2.36108H5.5M7 2.36108H3.75C3.336 2.36108 3 2.69708 3 3.11108V14.6111C3 15.0251 3.336 15.3611 3.75 15.3611H12.25C12.664 15.3611 13 15.0251 13 14.6111V8.36108C13 6.76979 12.3679 5.24366 11.2426 4.11844C10.1174 2.99322 8.5913 2.36108 7 2.36108Z" stroke="#667085" stroke-linecap="round" stroke-linejoin="round"/>
</svg>