<svg width="14" height="14" viewBox="0 0 14 14" fill="none" xmlns="http://www.w3.org/2000/svg">
<path d="M7 1.36109C8.83667 1.36109 10.6367 1.51575 12.3887 1.81309C12.744 1.87309 13 2.18375 13 2.54375V3.23975C13 3.43674 12.9612 3.63179 12.8858 3.81378C12.8104 3.99577 12.7 4.16113 12.5607 4.30042L8.93933 7.92175C8.80005 8.06104 8.68956 8.2264 8.61418 8.40839C8.5388 8.59038 8.5 8.78544 8.5 8.98242V10.9338C8.50005 11.2124 8.42249 11.4855 8.27601 11.7226C8.12952 11.9596 7.91991 12.1512 7.67067 12.2758L5.5 13.3611V8.98242C5.5 8.78544 5.4612 8.59038 5.38582 8.40839C5.31044 8.2264 5.19995 8.06104 5.06067 7.92175L1.43933 4.30042C1.30005 4.16113 1.18956 3.99577 1.11418 3.81378C1.0388 3.63179 0.999998 3.43674 1 3.23975V2.54375C1 2.18375 1.256 1.87309 1.61133 1.81309C3.39171 1.51165 5.19428 1.36046 7 1.36109Z" stroke="#667085" stroke-linecap="round" stroke-linejoin="round"/>
</svg>