<svg width="25" height="24" viewBox="0 0 25 24" fill="none" xmlns="http://www.w3.org/2000/svg">
<path d="M12.7364 7.19304C10.0763 7.19304 7.92941 9.33992 7.92941 12.0001C7.92941 14.6602 10.0763 16.8071 12.7364 16.8071C15.3966 16.8071 17.5435 14.6602 17.5435 12.0001C17.5435 9.33992 15.3966 7.19304 12.7364 7.19304ZM12.7364 15.1243C11.0161 15.1243 9.61222 13.7204 9.61222 12.0001C9.61222 10.2798 11.0161 8.87586 12.7364 8.87586C14.4568 8.87586 15.8607 10.2798 15.8607 12.0001C15.8607 13.7204 14.4568 15.1243 12.7364 15.1243ZM17.7403 5.87586C17.1193 5.87586 16.6177 6.37742 16.6177 6.99851C16.6177 7.61961 17.1193 8.12117 17.7403 8.12117C18.3614 8.12117 18.863 7.62195 18.863 6.99851C18.8632 6.85103 18.8343 6.70496 18.7779 6.56867C18.7216 6.43238 18.6389 6.30855 18.5346 6.20426C18.4303 6.09998 18.3065 6.01729 18.1702 5.96094C18.0339 5.90458 17.8878 5.87567 17.7403 5.87586ZM22.1068 12.0001C22.1068 10.7063 22.1185 9.42429 22.0458 8.13289C21.9732 6.63289 21.631 5.30164 20.5341 4.20476C19.4349 3.10554 18.106 2.7657 16.606 2.69304C15.3122 2.62039 14.0302 2.63211 12.7388 2.63211C11.445 2.63211 10.163 2.62039 8.8716 2.69304C7.3716 2.7657 6.04035 3.10789 4.94347 4.20476C3.84425 5.30398 3.50441 6.63289 3.43175 8.13289C3.3591 9.42664 3.37081 10.7087 3.37081 12.0001C3.37081 13.2915 3.3591 14.5759 3.43175 15.8673C3.50441 17.3673 3.8466 18.6985 4.94347 19.7954C6.04269 20.8946 7.3716 21.2344 8.8716 21.3071C10.1653 21.3798 11.4474 21.368 12.7388 21.368C14.0325 21.368 15.3146 21.3798 16.606 21.3071C18.106 21.2344 19.4372 20.8923 20.5341 19.7954C21.6333 18.6962 21.9732 17.3673 22.0458 15.8673C22.1208 14.5759 22.1068 13.2938 22.1068 12.0001ZM20.0443 17.5266C19.8732 17.9532 19.6669 18.2719 19.3364 18.6001C19.006 18.9305 18.6896 19.1368 18.263 19.3079C17.0302 19.7977 14.1028 19.6876 12.7364 19.6876C11.37 19.6876 8.44035 19.7977 7.20753 19.3102C6.78097 19.1391 6.46222 18.9329 6.1341 18.6024C5.80363 18.272 5.59738 17.9555 5.42628 17.529C4.93878 16.2938 5.04894 13.3665 5.04894 12.0001C5.04894 10.6337 4.93878 7.70398 5.42628 6.47117C5.59738 6.04461 5.80363 5.72586 6.1341 5.39773C6.46456 5.06961 6.78097 4.86101 7.20753 4.68992C8.44035 4.20242 11.37 4.31257 12.7364 4.31257C14.1028 4.31257 17.0325 4.20242 18.2653 4.68992C18.6919 4.86101 19.0107 5.06726 19.3388 5.39773C19.6693 5.7282 19.8755 6.04461 20.0466 6.47117C20.5341 7.70398 20.4239 10.6337 20.4239 12.0001C20.4239 13.3665 20.5341 16.2938 20.0443 17.5266Z" fill="#294F74"/>
</svg>