<svg width="1296" height="102" viewBox="0 0 1296 102" fill="none" xmlns="http://www.w3.org/2000/svg">
<path fill-rule="evenodd" clip-rule="evenodd" d="M1093.37 198.995L1036.88 163.083H930.195L969.241 197.888L968.449 198.995H1093.37ZM995.525 132.94L1037.8 159.814H1139.35L1085.72 132.94H995.525ZM990.382 129.67L951.416 104.901L1029.77 104.901L1079.2 129.67H990.382ZM914.334 81.3299L946.272 101.631L1023.25 101.631L982.732 81.3299L914.334 81.3299ZM909.191 78.0603L884.273 62.2209L944.598 62.2209L976.207 78.0603L909.191 78.0603ZM854.203 43.1068L879.129 58.9513L938.074 58.9513L906.455 43.1068L854.203 43.1068ZM849.06 39.8372L824.142 23.9978L868.321 23.9978L899.93 39.8372L849.06 39.8372ZM794.072 4.88365L818.998 20.7282L861.796 20.7282L830.177 4.88364L794.072 4.88365ZM788.928 1.61404L787.692 0.828491L787.292 1.61404L269.585 1.6141L269.582 1.59413L269.51 1.6141L133.331 1.61412L133.288 1.25726L131.582 1.61412L-244.808 1.61416V2.1163L-396.72 20.7283H-399.954V21.1246L-552.688 39.8373H-554.759V40.091L-708.699 58.9515H-711.915V59.3456L-864.667 78.0605H-867.067V78.3546L-1057.06 101.632H-1060.37V102.038L-1285.91 129.67H-1286.78V129.778L-1531.94 159.814H-1537.47V160.492L-1851.74 198.995H-1851.94V199.019L-1851.99 199.026L-1851.94 199.807V202.265H-1851.76L-1851.76 202.288L-1851.57 202.265H-1723.53L-1723.51 202.498L-1721.71 202.265H-1595.31L-1595.28 202.672L-1592.3 202.265H-1339.29L-1339.27 202.534L-1337.52 202.265H-1211.06L-1211.01 202.713L-1208.29 202.265H-954.469L-954.469 202.269L-954.443 202.265H-812.878L-812.849 202.497L-811.736 202.265H-701.222L-701.123 203.027L-697.726 202.265H-571.509L-571.404 202.998L-568.441 202.265H-441.854L-441.771 202.782L-439.91 202.265H-185.891L-185.88 202.32L-185.724 202.265H-57.7716L-57.5826 202.833L-56.2108 202.265H72.0222L72.3878 203.172L74.1945 202.265H200.25L200.684 203.102L201.979 202.265H328.836L329.223 202.796L329.808 202.265H1350.8L1351.82 202.689L1351.92 202.265H1479.24L1479.81 202.467L1479.86 202.265H1606.54L1607.67 202.615L1607.73 202.265H1734.48L1735.76 202.62L1735.82 202.265H1863.31L1863.85 202.398L1863.87 202.265H1990.3L1992.29 202.713L1992.35 202.265H2120.32L2120.65 202.332L2120.66 202.265H2247.83L2248.9 202.467L2248.92 202.265H2377.25L2377.31 202.276L2377.32 202.265H3018.98L3019.41 202.322L3019.42 202.265H3147.39L3147.76 202.311L3147.76 202.265H3147.99V199.057L3147.99 199.05L3147.99 198.995H3147.56L2842.24 160.502V159.814H2836.78L2598.8 129.81V129.67H2597.69L2188.4 78.0684V78.0602H2188.33L1582.09 1.62783V1.61395H1581.98L1580.92 1.48021L1580.91 1.61395L1534.95 1.61396L1534.03 1.49095L1534.02 1.61396L1441.21 1.61397L1440.26 1.48603L1440.25 1.61397L1394.02 1.61397L1393.38 1.52253L1393.38 1.61397L1347.62 1.61398L1346.53 1.44641L1346.51 1.61398L1300.79 1.61398L1299.65 1.42682L1299.63 1.61398L1253.44 1.61399L1252.76 1.49454L1252.75 1.61399L1206.44 1.614L1205.9 1.51129L1205.89 1.614L1159.31 1.614L1159.02 1.55396L1159.01 1.614L1112.72 1.61401L1112.17 1.48963L1112.15 1.61401L1065.88 1.61401L1065.3 1.472L1065.28 1.61401L1018.95 1.61402L1018.45 1.47595L1018.43 1.61402L972.026 1.61402L971.583 1.47629L971.558 1.61402L925.099 1.61403L924.748 1.48926L924.722 1.61403L877.506 1.61403L877.444 1.58837L877.438 1.61403L830.926 1.61404L830.139 1.21975L829.98 1.61404L788.928 1.61404ZM876.957 4.88364L837.451 4.88364L869.07 20.7282L914.994 20.7282L876.957 4.88364ZM885.355 4.88364L923.392 20.7282L969.148 20.7282L924.627 4.88363L885.355 4.88364ZM971.612 4.88363L934.286 4.88363L978.807 20.7282L1022.58 20.7281L971.612 4.88363ZM982.543 4.88363L1033.51 20.7281L1076.05 20.7281L1018.58 4.88362L982.543 4.88363ZM1030.81 4.88362L1088.28 20.7281L1129.58 20.7281L1065.55 4.88362L1030.81 4.88362ZM1079.09 4.88362L1143.13 20.7281L1182.89 20.7281L1112.42 4.88361L1079.09 4.88362ZM1127.26 4.88361L1197.73 20.7281L1236.2 20.7281L1159.04 4.88361L1127.26 4.88361ZM1175.24 4.8836L1252.4 20.7281L1289.8 20.7281L1206.18 4.8836L1175.24 4.8836ZM1223.69 4.8836L1307.31 20.7281L1343.44 20.7281L1253.21 4.8836L1223.69 4.8836ZM1272.06 4.88359L1362.29 20.7281L1397.47 20.7281L1300.57 4.88359L1272.06 4.88359ZM1320.79 4.88359L1417.68 20.7281L1450.97 20.7281L1347.42 4.88358L1320.79 4.88359ZM1368.99 4.88358L1472.55 20.7281L1503.75 20.7281L1393.82 4.88358L1368.99 4.88358ZM1416.7 4.88358L1526.62 20.7281L1557.76 20.7281L1441.02 4.88357L1416.7 4.88358ZM1465.3 4.88357L1582.03 20.7281L1653.91 20.7281L1534.77 4.88356L1465.3 4.88357ZM1559.54 4.88356L1678.68 20.7281L1707.48 20.7281L1581.81 4.88356L1559.54 4.88356ZM-242.969 4.88377L-242.948 5.17831L-369.868 20.7283L-342.656 20.7283L-220.069 4.88376L-242.969 4.88377ZM-194.612 4.88376L-194.611 4.88537L-317.186 20.7283L-287.774 20.7283L-171.811 4.88376L-194.612 4.88376ZM-147.701 4.88376V4.88429L-263.661 20.7283L-233.508 20.7283L-123.68 4.88375L-147.701 4.88376ZM-100.822 4.88375L-210.65 20.7283L-178.428 20.7283L-75.3888 4.88375L-100.822 4.88375ZM-53.9193 4.88375L-156.959 20.7283L-123.58 20.7283L-27.1503 4.88374L-53.9193 4.88375ZM-7.03076 4.88374L-103.46 20.7283L-69.1204 20.7283L21.0266 4.88374L-7.03076 4.88374ZM39.865 4.88373L-50.282 20.7283L-14.3236 20.7283L69.2578 4.88373L39.865 4.88373ZM86.7598 4.88373L3.17834 20.7283L40.205 20.7283L115.951 4.88373L86.7598 4.88373ZM131.862 4.88372L56.1161 20.7283L96.2062 20.7283L166.798 4.88372L131.862 4.88372ZM180.615 4.88372L180.645 5.11298L111.074 20.7283L151.345 20.7282L215.35 4.88371L180.615 4.88372ZM227.525 4.88371L227.572 5.20958L164.884 20.7282L200.775 20.7282L257.752 4.88371L227.525 4.88371ZM269.881 4.88371L212.904 20.7282L255.64 20.7282L306.378 4.8837L269.881 4.88371ZM317.264 4.8837L266.526 20.7282L310.933 20.7282L355.118 4.8837L317.264 4.8837ZM364.17 4.8837L364.208 5.06453L320.526 20.7282L373.538 20.7282L411.79 4.88369L364.17 4.8837ZM419.165 4.88369L419.304 5.30129L382.06 20.7282L428.551 20.7282L460.113 4.88369L419.165 4.88369ZM465.574 4.88369L465.877 5.63603L435.814 20.7282L476.811 20.7282L501.321 4.88368L465.574 4.88369ZM506.032 4.88368L506.355 5.50552L482.806 20.7282L525.131 20.7282L542.601 4.88368L506.032 4.88368ZM546.654 4.88368L546.967 5.31322L529.97 20.7282L573.363 20.7282L583.783 4.88367L546.654 4.88368ZM587.675 4.88367L577.255 20.7282L621.586 20.7282L624.956 4.88367L587.675 4.88367ZM628.295 4.88367L624.925 20.7282L669.831 20.7282L666.15 4.88366L628.295 4.88367ZM669.502 4.88366L673.183 20.7282L717.273 20.7282L706.539 4.88366L669.502 4.88366ZM710.466 4.88366L721.2 20.7282L765.604 20.7282L747.829 4.88365L710.466 4.88366ZM752.715 4.88365L788.004 4.88365L812.93 20.7282L770.49 20.7282L752.715 4.88365ZM907.203 39.8372L875.594 23.9978L922.843 23.9978L960.868 39.8372L907.203 39.8372ZM931.241 23.9978L978.335 23.9978L1022.84 39.8372L969.266 39.8372L931.241 23.9978ZM1032.5 39.8372L987.994 23.9978L1033.1 23.9977L1084.05 39.8371L1032.5 39.8372ZM1094.98 39.8371L1044.03 23.9977L1087.91 23.9977L1145.36 39.8371L1094.98 39.8371ZM1157.58 39.8371L1100.14 23.9977L1142.8 23.9977L1206.82 39.8371L1157.58 39.8371ZM1220.36 39.8371L1156.35 23.9977L1197.43 23.9977L1267.88 39.8371L1220.36 39.8371ZM1282.72 39.8371L1212.27 23.9977L1252.13 23.9977L1329.27 39.8371L1282.72 39.8371ZM1345.47 39.8371L1268.33 23.9977L1307.06 23.9977L1390.65 39.8371L1345.47 39.8371ZM1408.15 39.8371L1324.56 23.9977L1362.06 23.9977L1452.26 39.8371L1408.15 39.8371ZM1471.12 39.8371L1380.91 23.9977L1417.46 23.9977L1514.33 39.8371L1471.12 39.8371ZM1534.54 39.8371L1437.68 23.9977L1472.34 23.9977L1575.86 39.8371L1534.54 39.8371ZM1597.44 39.8371L1493.92 23.9977L1526.43 23.9977L1636.32 39.8371L1597.44 39.8371ZM1659.19 39.8371L1549.31 23.9977L1581.85 23.9977L1698.54 39.8371L1659.19 39.8371ZM1722.81 39.8371L1606.12 23.9977L1678.5 23.9977L1797.6 39.8371L1722.81 39.8371ZM1822.37 39.8371L1703.26 23.9977L1733.38 23.9977V23.9929L1859.05 39.8371L1822.37 39.8371ZM-525.837 39.8373L-396.555 23.9979L-367.953 23.9979L-490.5 39.8373L-525.837 39.8373ZM-465.03 39.8373L-342.482 23.9979L-311.704 23.9979L-427.63 39.8373L-465.03 39.8373ZM-403.517 39.8373L-287.591 23.9979L-256.171 23.9979L-365.964 39.8373L-403.517 39.8373ZM-343.106 39.8373L-233.314 23.9979L-199.691 23.9979L-302.697 39.8373L-343.106 39.8373ZM-281.228 39.8373L-178.222 23.9979L-143.478 23.9979L-239.877 39.8373L-281.228 39.8373ZM-219.757 39.8373L-123.359 23.9979L-87.7227 23.9979L-177.84 39.8373L-219.757 39.8373ZM-159.002 39.8373L-68.8843 23.9979L-31.571 23.9979L-115.125 39.8373L-159.002 39.8373ZM-97.6235 39.8373L-14.0692 23.9979L24.5742 23.9979L-51.1476 39.8373L-97.6235 39.8373ZM-35.2365 39.8373L40.4854 23.9979L81.6392 23.9979L11.0697 39.8373L-35.2365 39.8373ZM25.9375 39.8373L96.507 23.9979L138.137 23.9979L74.1533 39.8373L25.9375 39.8373ZM87.6921 39.8373L151.676 23.9979L189.017 23.9978L132.058 39.8373L87.6921 39.8373ZM144.187 39.8373L201.146 23.9978L245.17 23.9978L194.448 39.8372L144.187 39.8373ZM205.334 39.8372L256.056 23.9978L301.815 23.9978L257.644 39.8372L205.334 39.8372ZM267.237 39.8372L311.408 23.9978L365.644 23.9978L327.404 39.8372L267.237 39.8372ZM335.927 39.8372L374.167 23.9978L422.038 23.9978L390.486 39.8372L335.927 39.8372ZM397.749 39.8372L429.301 23.9978L471.753 23.9978L447.25 39.8372L397.749 39.8372ZM453.245 39.8372L477.748 23.9978L521.526 23.9978L504.062 39.8372L453.245 39.8372ZM508.9 39.8372L526.365 23.9978L571.213 23.9978L560.797 39.8372L508.9 39.8372ZM564.688 39.8372L575.105 23.9978L620.891 23.9978L617.522 39.8372L564.688 39.8372ZM620.86 39.8372L624.229 23.9978L670.591 23.9978L674.271 39.8372L620.86 39.8372ZM677.623 39.8372L673.943 23.9978L719.488 23.9978L730.219 39.8372L677.623 39.8372ZM734.146 39.8372L723.416 23.9978L769.272 23.9978L787.042 39.8372L734.146 39.8372ZM791.928 39.8372L774.158 23.9978L818.074 23.9978L842.992 39.8372L791.928 39.8372ZM913.728 43.1068L968.717 43.1068L1006.75 58.9513L945.347 58.9513L913.728 43.1068ZM977.115 43.1068L1015.15 58.9513L1076.55 58.9513L1032.03 43.1068L977.115 43.1068ZM1041.69 43.1068L1086.21 58.9513L1145.53 58.9513L1094.57 43.1068L1041.69 43.1068ZM1105.5 43.1068L1156.47 58.9513L1214.68 58.9513L1157.22 43.1067L1105.5 43.1068ZM1169.44 43.1067L1226.91 58.9513L1284.07 58.9513L1220.03 43.1067L1169.44 43.1067ZM1233.58 43.1067L1297.62 58.9513L1352.89 58.9512L1282.42 43.1067L1233.58 43.1067ZM1297.26 43.1067L1367.73 58.9512L1422.36 58.9512L1345.19 43.1067L1297.26 43.1067ZM1361.39 43.1067L1438.56 58.9512L1491.52 58.9512L1407.9 43.1067L1361.39 43.1067ZM1425.41 43.1067L1509.03 58.9512L1561.11 58.9512L1470.88 43.1067L1425.41 43.1067ZM1489.73 43.1067L1579.97 58.9512L1631.22 58.9512L1534.32 43.1067L1489.73 43.1067ZM1554.54 43.1067L1651.44 58.9512L1700.79 58.9512L1597.23 43.1067L1554.54 43.1067ZM1618.81 43.1067L1722.36 58.9512L1768.92 58.9512L1659 43.1067L1618.81 43.1067ZM1681.88 43.1067L1791.8 58.9512L1839.36 58.9512L1722.63 43.1067L1681.88 43.1067ZM1746.9 43.1067L1863.64 58.9512L1941.33 58.9512L1822.19 43.1067L1746.9 43.1067ZM1846.96 43.1067L1966.1 58.9512L2010.66 58.9512L1884.98 43.1067L1846.96 43.1067ZM-552.523 43.1069L-681.847 58.9515L-638.383 58.9515L-515.797 43.1069L-552.523 43.1069ZM-490.326 43.1069L-612.913 58.9515L-567.524 58.9515L-451.56 43.1069L-490.326 43.1069ZM-427.447 43.1069L-543.411 58.9515L-498.456 58.9515L-388.627 43.1069L-427.447 43.1069ZM-365.77 43.1069L-475.598 58.9515L-427 58.9514L-323.96 43.1069L-365.77 43.1069ZM-302.491 43.1069L-405.53 58.9514L-356.205 58.9514L-259.775 43.1069L-302.491 43.1069ZM-239.656 43.1069L-336.085 58.9514L-286.59 58.9514L-196.443 43.1069L-239.656 43.1069ZM-177.604 43.1069L-267.751 58.9514L-215.954 58.9514L-132.373 43.1069L-177.604 43.1069ZM-114.871 43.1069L-198.453 58.9514L-142.525 58.9514L-66.7783 43.1069L-114.871 43.1069ZM-50.8672 43.1069L-126.614 58.9514L-74.0896 58.9514L-3.49731 43.1069L-50.8672 43.1069ZM11.3704 43.1069L-59.2218 58.9514L-3.0592 58.9514L60.9456 43.1069L11.3704 43.1069ZM74.4844 43.1069L10.4796 58.9514L63.3225 58.9514L120.3 43.1069L74.4844 43.1069ZM132.429 43.1069L75.4513 58.9514L133.24 58.9514L183.978 43.1069L132.429 43.1069ZM194.864 43.1069L144.126 58.9514L204.34 58.9514L248.526 43.1068L194.864 43.1069ZM258.119 43.1068L213.933 58.9514L281.258 58.9514L319.511 43.1068L258.119 43.1068ZM328.033 43.1068L289.781 58.9514L352.41 58.9514L383.973 43.1068L328.033 43.1068ZM391.236 43.1068L359.674 58.9514L417.681 58.9514L442.192 43.1068L391.236 43.1068ZM448.188 43.1068L423.677 58.9514L482.986 58.9513L500.457 43.1068L448.188 43.1068ZM505.295 43.1068L487.825 58.9513L548.227 58.9513L558.646 43.1068L505.295 43.1068ZM562.538 43.1068L552.119 58.9513L613.456 58.9513L616.826 43.1068L562.538 43.1068ZM620.165 43.1068L616.795 58.9513L678.711 58.9513L675.03 43.1068L620.165 43.1068ZM678.382 43.1068L682.063 58.9513L743.169 58.9513L732.434 43.1068L678.382 43.1068ZM736.362 43.1068L747.096 58.9513L808.486 58.9513L790.71 43.1068L736.362 43.1068ZM795.596 43.1068L813.372 58.9513L873.062 58.9513L848.135 43.1068L795.596 43.1068ZM983.481 78.0603L951.872 62.2209L1014.6 62.2209L1052.63 78.0603L983.481 78.0603ZM1061.03 78.0603L1023 62.2209L1085.74 62.2209L1130.24 78.0603L1061.03 78.0603ZM1139.9 78.0603L1095.4 62.2209L1156.05 62.2209L1207 78.0603L1139.9 78.0603ZM1217.94 78.0603L1166.98 62.2209L1226.54 62.2209L1283.99 78.0603L1217.94 78.0603ZM1296.22 78.0602L1238.77 62.2209L1297.29 62.2209L1361.31 78.0602L1296.22 78.0602ZM1374.85 78.0602L1310.83 62.2209L1367.43 62.2208L1437.88 78.0602L1374.85 78.0602ZM1452.72 78.0602L1382.28 62.2208L1438.28 62.2208L1515.42 78.0602L1452.72 78.0602ZM1531.62 78.0602L1454.48 62.2208L1508.77 62.2208L1592.36 78.0602L1531.62 78.0602ZM1609.87 78.0602L1526.28 62.2208L1579.73 62.2208L1669.93 78.0602L1609.87 78.0602ZM1688.79 78.0602L1598.59 62.2208L1651.22 62.2208L1748.08 78.0602L1688.79 78.0602ZM1768.3 78.0602L1671.43 62.2208L1722.16 62.2208L1825.68 78.0602L1768.3 78.0602ZM1847.25 78.0602L1743.73 62.2208L1791.6 62.2208L1901.49 78.0602L1847.25 78.0602ZM1924.37 78.0602L1814.48 62.2208L1863.45 62.2208L1980.15 78.0602L1924.37 78.0602ZM2004.42 78.0602L1887.72 62.2208L1965.92 62.2208L2085.02 78.0602L2004.42 78.0602ZM2109.79 78.0602L1990.68 62.2208L2036.53 62.2208V62.2127L2162.23 78.0602L2109.79 78.0602ZM-837.816 78.0605L-708.534 62.2211L-663.68 62.2211L-786.227 78.0605L-837.816 78.0605ZM-760.757 78.0605L-638.209 62.2211L-591.454 62.2211L-707.38 78.0605H-760.757ZM-683.266 78.0605L-567.34 62.2211L-521.119 62.2211L-630.912 78.0605L-683.266 78.0605ZM-608.054 78.0605L-498.262 62.2211L-448.263 62.2211L-551.269 78.0605L-608.054 78.0605ZM-529.799 78.0605L-426.793 62.2211L-376.104 62.2211L-472.502 78.0605L-529.799 78.0605ZM-452.382 78.0605L-355.984 62.221L-305.192 62.221L-395.31 78.0604L-452.382 78.0605ZM-376.471 78.0604L-286.354 62.221L-233.202 62.221L-316.756 78.0604L-376.471 78.0604ZM-299.254 78.0604L-215.7 62.221L-158.155 62.221L-233.877 78.0604L-299.254 78.0604ZM-217.966 78.0604L-142.244 62.221L-88.6567 62.221L-159.226 78.0604L-217.966 78.0604ZM-144.358 78.0604L-73.7889 62.221L-16.267 62.221L-80.251 78.0604L-144.358 78.0604ZM-66.7122 78.0604L-2.72815 62.221L51.5648 62.221L-5.39441 78.0604L-66.7122 78.0604ZM6.73438 78.0604L63.6936 62.221L122.77 62.221L72.048 78.0604L6.73438 78.0604ZM82.9337 78.0604L133.656 62.221L195.222 62.221L151.051 78.0604L82.9337 78.0604ZM160.644 78.0604L204.815 62.221L273.365 62.221L235.125 78.0604L160.644 78.0604ZM243.647 78.0604L281.887 62.221L345.897 62.221L314.345 78.0604L243.647 78.0604ZM321.608 78.0604L353.16 62.221L412.623 62.221L388.121 78.0604L321.608 78.0604ZM394.116 78.0604L418.619 62.221L479.381 62.221L461.917 78.0603L394.116 78.0604ZM466.756 78.0603L484.22 62.221L546.077 62.2209L535.66 78.0603L466.756 78.0603ZM539.552 78.0603L549.969 62.2209L612.761 62.2209L609.392 78.0603L539.552 78.0603ZM612.73 78.0603L616.099 62.2209L679.471 62.2209L683.151 78.0603L612.73 78.0603ZM686.503 78.0603L682.823 62.2209L745.384 62.2209L756.115 78.0603L686.503 78.0603ZM760.042 78.0603L749.311 62.2209L812.154 62.2209L829.924 78.0603L760.042 78.0603ZM834.81 78.0603L817.04 62.2209L878.205 62.2209L903.123 78.0603L834.81 78.0603ZM990.006 81.3299L1030.52 101.631L1109.21 101.631L1060.48 81.3299L990.006 81.3299ZM1139.43 81.3299L1068.88 81.3299L1117.61 101.631L1196.48 101.631L1139.43 81.3299ZM1149.09 81.3299L1206.14 101.631L1282.83 101.631L1217.52 81.3299L1149.09 81.3299ZM1228.45 81.3299L1293.76 101.631L1369.48 101.631L1295.85 81.3299L1228.45 81.3299ZM1308.08 81.3299L1381.71 101.631L1456.58 101.631L1374.52 81.3298L1308.08 81.3299ZM1388.07 81.3298L1470.12 101.631L1542.72 101.631L1452.42 81.3298L1388.07 81.3298ZM1467.27 81.3298L1557.56 101.631L1630.22 101.631L1531.35 81.3298L1467.27 81.3298ZM1547.55 81.3298L1646.42 101.631L1716.75 101.631L1609.62 81.3298L1547.55 81.3298ZM1627.13 81.3298L1734.26 101.631L1804.16 101.631L1688.55 81.3298H1627.13ZM1707.41 81.3298L1823.02 101.631L1892.23 101.631L1768.08 81.3298L1707.41 81.3298ZM1788.29 81.3298L1912.45 101.631L1979.73 101.631L1847.05 81.3298L1788.29 81.3298ZM1868.62 81.3298L2001.31 101.631L2065.02 101.631L1924.17 81.3298L1868.62 81.3298ZM1947.05 81.3298L2087.9 101.631L2153.81 101.631L2004.24 81.3298L1947.05 81.3298ZM2028.51 81.3298L2178.08 101.631L2262.27 101.631L2109.61 81.3298L2028.51 81.3298ZM2134.37 81.3298L2287.03 101.631L2349.19 101.631L2188.16 81.3298L2134.37 81.3298ZM-864.502 81.3301L-1030.2 101.632L-968.594 101.632L-811.524 81.3301L-864.502 81.3301ZM-786.053 81.3301L-943.124 101.632L-879.894 101.632L-731.31 81.3301L-786.053 81.3301ZM-707.196 81.3301L-855.781 101.632L-794.298 101.632L-653.575 81.3301L-707.196 81.3301ZM-630.718 81.3301L-771.44 101.632L-704.556 101.632L-572.532 81.3301H-630.718ZM-551.062 81.3301L-683.087 101.632L-615.955 101.632L-492.401 81.3301L-551.062 81.3301ZM-472.281 81.3301L-595.836 101.632L-529.417 101.632L-413.912 81.3301L-472.281 81.3301ZM-395.074 81.3301L-510.579 101.632L-441.097 101.632L-334.004 81.33L-395.074 81.3301ZM-316.502 81.33L-423.595 101.632L-346.562 101.632L-249.508 81.33L-316.502 81.33ZM-233.597 81.33L-330.651 101.632L-264.243 101.632L-173.793 81.33H-233.597ZM-158.925 81.33L-249.375 101.632L-175.468 101.632L-93.4587 81.33L-158.925 81.33ZM-79.9199 81.33L-161.929 101.632L-90.1576 101.632L-17.1521 81.33L-79.9199 81.33ZM-5.02332 81.33L-78.0288 101.632L-3.43298 101.632L61.5779 81.33L-5.02332 81.33ZM72.4636 81.33L7.45276 101.632L85.3176 101.632L141.933 81.33L72.4636 81.33ZM151.526 81.33L94.911 101.632L178.219 101.632L227.231 81.33L151.526 81.33ZM235.753 81.33L186.741 101.632L267.392 101.632L307.833 81.33L235.753 81.33ZM315.095 81.33L274.655 101.632L351.657 101.632L383.063 81.33L315.095 81.33ZM389.058 81.33L357.653 101.632L435.927 101.632L458.312 81.33L389.058 81.33ZM463.151 81.33L440.766 101.632L520.159 101.632L533.51 81.3299L463.151 81.33ZM537.402 81.3299L524.051 101.632L604.378 101.632L608.696 81.3299L537.402 81.3299ZM612.035 81.3299L607.717 101.632L688.627 101.632L683.91 81.3299L612.035 81.3299ZM687.262 81.3299L691.979 101.632L772.084 101.632L758.33 81.3299L687.262 81.3299ZM762.258 81.3299L776.012 101.632L856.368 101.632L833.592 81.3299L762.258 81.3299ZM838.478 81.3299L861.253 101.631L940.204 101.631L908.267 81.3299L838.478 81.3299ZM1117.06 104.901L1037.04 104.901L1086.47 129.67H1176.53L1117.06 104.901ZM1184.92 129.67L1125.46 104.901L1205.66 104.901L1275.26 129.67H1184.92ZM1284.92 129.67L1215.32 104.901L1293.34 104.901L1373.02 129.67H1284.92ZM1383.95 129.67L1304.28 104.901L1381.34 104.901L1471.18 129.67H1383.95ZM1483.41 129.67L1393.57 104.901L1469.79 104.901L1569.9 129.67H1483.41ZM1583.45 129.67L1483.34 104.901L1557.26 104.901L1667.42 129.67H1583.45ZM1682.27 129.67L1572.1 104.901L1646.14 104.901L1766.77 129.67H1682.27ZM1782.97 129.67L1662.34 104.901L1734.01 104.901L1864.72 129.67H1782.97ZM1882.23 129.67L1751.52 104.901L1822.78 104.901L1963.84 129.67H1882.23ZM1982.7 129.67L1841.64 104.901L1912.23 104.901L2063.7 129.67H1982.7ZM2083.92 129.67L1932.44 104.901L2001.1 104.901L2162.99 129.67H2083.92ZM2184.56 129.67L2022.68 104.901L2087.7 104.901L2259.54 129.67H2184.56ZM2282.42 129.67L2110.58 104.901L2177.9 104.901L2360.38 129.67H2282.42ZM2384.65 129.67L2202.17 104.901L2286.85 104.901L2473.11 129.67H2384.65ZM2497.87 129.67L2311.62 104.901L2375.12 104.901L2571.59 129.67H2497.87ZM-1259.06 129.67L-1056.89 104.901L-993.891 104.901L-1185.52 129.67H-1259.06ZM-1160.05 129.67L-968.42 104.901L-903.824 104.901L-1085.1 129.67H-1160.05ZM-1060.99 129.67L-879.71 104.901L-816.962 104.901L-988.65 129.67H-1060.99ZM-965.793 129.67L-794.104 104.901L-725.819 104.901L-886.896 129.67H-965.793ZM-865.426 129.67L-704.349 104.901L-635.854 104.901L-786.598 129.67H-865.426ZM-766.478 129.67L-615.735 104.901L-548.02 104.901L-688.942 129.67H-766.478ZM-670.104 129.67L-529.181 104.901L-458.344 104.901L-589.003 129.67H-670.104ZM-571.501 129.67L-440.842 104.901L-362.192 104.901L-480.603 129.67H-571.501ZM-464.692 129.67L-346.281 104.901L-278.81 104.901L-389.163 129.67H-464.692ZM-374.296 129.67L-263.942 104.901L-188.676 104.901L-288.731 129.67H-374.296ZM-275.193 129.67L-175.137 104.901L-101.915 104.901L-190.986 129.67H-275.193ZM-178.857 129.67L-89.7865 104.901L-13.9031 104.901L-93.2198 129.67H-178.857ZM-82.3341 129.67L-3.01733 104.901L76.1997 104.901L7.12622 129.67H-82.3341ZM16.7196 129.67L85.7931 104.901L170.325 104.901L110.527 129.67H16.7196ZM119.049 129.67L178.847 104.901L260.879 104.901L211.539 129.67H119.049ZM218.802 129.67L268.142 104.901L346.599 104.901L308.283 129.67H218.802ZM314.278 129.67L352.595 104.901L432.322 104.901L405.012 129.67H314.278ZM409.851 129.67L437.161 104.901L518.009 104.901L501.72 129.67H409.851ZM505.613 129.67L521.901 104.901L603.683 104.901L598.414 129.67H505.613ZM601.753 129.67L607.021 104.901L689.387 104.901L695.141 129.67H601.753ZM698.493 129.67L692.739 104.901L774.3 104.901L791.081 129.67H698.493ZM795.008 129.67L778.227 104.901L860.036 104.901L887.824 129.67H795.008ZM892.709 129.67L864.922 104.901L945.348 104.901L984.314 129.67H892.709ZM1093 132.94L1146.63 159.814H1248.89L1184.37 132.94H1093ZM1192.77 132.94L1257.29 159.814H1359.96L1284.45 132.94H1192.77ZM1294.11 132.94L1369.62 159.814H1469.99L1383.54 132.94H1294.11ZM1394.47 132.94L1480.92 159.814H1580.51L1483.04 132.94H1394.47ZM1495.26 132.94L1592.74 159.814H1691.73L1583.12 132.94H1495.26ZM1596.66 132.94L1705.28 159.814H1801.49L1681.96 132.94H1596.66ZM1696.81 132.94L1816.33 159.814H1913.58L1782.7 132.94H1696.81ZM1798.9 132.94L1929.78 159.814H2023.8L1881.98 132.94H1798.9ZM1899.49 132.94L2041.31 159.814H2135.5L1982.46 132.94H1899.49ZM2001.32 132.94L2154.36 159.814H2248.04L2083.7 132.94H2001.32ZM2103.91 132.94L2268.26 159.814H2360L2184.36 132.94H2103.91ZM2205.93 132.94L2381.57 159.814H2468.66L2282.22 132.94H2205.93ZM2305.1 132.94L2491.54 159.814H2582.46L2384.47 132.94H2305.1ZM2408.74 132.94L2606.73 159.814H2699.77L2497.69 132.94H2408.74ZM2522.46 132.94L2724.53 159.814H2810.68L2597.52 132.94H2522.46ZM-1285.74 132.94L-1505.09 159.814H-1418.74L-1210.82 132.94H-1285.74ZM-1185.35 132.94L-1393.27 159.814H-1305.72L-1109.03 132.94H-1185.35ZM-1084.92 132.94L-1281.61 159.814H-1197.59L-1011.31 132.94H-1084.92ZM-988.456 132.94L-1174.74 159.814H-1082.92L-908.158 132.94H-988.456ZM-886.689 132.94L-1061.45 159.814H-970.05L-806.496 132.94H-886.689ZM-786.377 132.94L-949.931 159.814H-860.443L-707.544 132.94H-786.377ZM-688.706 132.94L-841.604 159.814H-748.013L-606.25 132.94H-688.706ZM-588.749 132.94L-730.511 159.814H-624.707L-496.234 132.94H-588.749ZM-480.323 132.94L-608.796 159.814H-523.462L-403.73 132.94H-480.323ZM-388.863 132.94L-508.594 159.814H-410.498L-301.939 132.94H-388.863ZM-288.4 132.94L-396.959 159.814H-299.383L-202.743 132.94H-288.4ZM-190.615 132.94L-287.255 159.814H-189.747L-103.69 132.94H-190.615ZM-92.8041 132.94L-178.861 159.814H-76.9351L-1.9917 132.94H-92.8041ZM7.60168 132.94L-67.3417 159.814H37.7532L102.633 132.94H7.60168ZM111.155 132.94L46.2751 159.814H151.493L205.026 132.94H111.155ZM212.289 132.94L158.756 159.814H261.653L303.225 132.94H212.289ZM309.22 132.94L267.648 159.814H371.776L401.407 132.94H309.22ZM406.246 132.94L376.615 159.814H481.897L499.57 132.94H406.246ZM503.462 132.94L485.79 159.814H592.003L597.719 132.94H503.462ZM601.057 132.94L595.341 159.814H702.144L695.901 132.94H601.057ZM699.253 132.94L705.496 159.814H811.503L793.296 132.94H699.253ZM797.223 132.94L815.43 159.814H921.641L891.492 132.94H797.223ZM896.378 132.94L926.527 159.814H1031.73L989.458 132.94H896.378ZM1145.88 163.083H1042.95L1097.18 197.557L1096.45 198.995H1217.54L1145.88 163.083ZM1224.06 198.617L1153.15 163.083H1256.74L1342.95 198.995H1223.91L1224.06 198.617ZM1351.35 198.995L1265.14 163.083H1369.15L1470.06 198.995H1351.35ZM1479.72 198.995L1378.81 163.083H1480.5L1596.02 198.995H1479.72ZM1606.95 198.995L1491.44 163.083H1592.37L1722.62 198.995H1606.95ZM1734.84 198.995L1604.59 163.083H1704.95L1850.09 198.995H1734.84ZM1863.64 198.995L1718.49 163.083H1816.03L1975.75 198.995H1863.64ZM1990.6 198.995L1830.88 163.083H1929.5L2104.4 198.995H1990.6ZM2120.6 198.995L1945.7 163.083H2041.06L2230.57 198.995H2120.6ZM2248.08 198.995L2058.57 163.083H2154.12L2358.63 198.995H2248.08ZM2377.48 198.995L2172.98 163.083H2268.04L2487.66 198.995H2377.48ZM2506.01 198.69L2288.25 163.083H2381.36L2616.07 198.995H2505.98L2506.01 198.69ZM2634.59 198.527L2402.94 163.083H2491.35L2740.48 198.995H2634.54L2634.59 198.527ZM2762.86 198.922L2514.22 163.083H2606.55L2871.13 198.995H2762.85L2762.86 198.922ZM2891.31 198.44L2630.82 163.083H2724.36L2994.39 198.995H2891.27L2891.31 198.44ZM3019.16 198.995L2749.12 163.083H2836.61L3121.46 198.995H3019.16ZM-1824.89 198.995L-1531.78 163.083H-1444.04L-1721.88 198.995H-1824.89ZM-1696.41 198.995L-1418.57 163.083H-1329.65L-1592.48 198.995H-1696.41ZM-1568.37 198.995L-1305.54 163.083H-1220.26L-1467.27 198.719L-1467.25 198.995H-1568.37ZM-1446.32 198.995L-1197.4 163.083H-1104.19L-1337.73 198.995H-1446.32ZM-1316.26 198.995L-1082.72 163.083H-989.949L-1208.51 198.995H-1316.26ZM-1188.39 198.995L-969.829 163.083H-879.045L-1083.08 198.946L-1083.08 198.995H-1188.39ZM-1064.52 198.995L-860.206 163.083H-765.26L-954.698 198.995H-1064.52ZM-937.196 198.995L-747.759 163.083H-640.338L-812.017 198.995H-937.196ZM-796.105 198.995L-624.427 163.083H-538.029L-698.026 198.995H-796.105ZM-683.159 198.995L-523.161 163.083H-423.706L-568.772 198.995H-683.159ZM-555.233 198.995L-410.167 163.083H-311.141L-440.281 198.995H-555.233ZM-428.152 198.995L-299.012 163.083H-200.217L-314.467 198.761L-314.425 198.995H-428.152ZM-304.329 198.995L-189.332 163.083H-86.053L-186.2 198.995H-304.329ZM-176.606 198.995L-76.4597 163.083H29.8596L-56.8392 198.995H-176.606ZM-48.3173 198.995L38.3816 163.083H144.98L73.4443 198.995H-48.3173ZM80.7075 198.995L152.243 163.083H256.594L201.041 198.995H80.7075ZM207.037 198.995L262.59 163.083H368.171L328.575 198.995H207.037ZM333.414 198.995L373.01 163.083H479.747L456.131 198.995H333.414ZM460.023 198.995L483.639 163.083H591.307L583.669 198.995H460.023ZM587.007 198.995L594.646 163.083H702.904L711.247 198.995H587.007ZM714.599 198.995L706.256 163.083H813.718L838.048 198.995H714.599ZM841.604 198.448L817.645 163.083H925.309L965.598 198.995H840.956L841.604 198.448Z" fill="url(#paint0_linear_1227_58)"/>
<defs>
<linearGradient id="paint0_linear_1227_58" x1="648" y1="0.828491" x2="648" y2="203.172" gradientUnits="userSpaceOnUse">
<stop offset="0.0989583" stop-color="#2F5478" stop-opacity="0"/>
<stop offset="1" stop-color="#3D6C99"/>
</linearGradient>
</defs>
</svg>