<svg width="25" height="24" viewBox="0 0 25 24" fill="none" xmlns="http://www.w3.org/2000/svg">
<rect x="2.9209" y="1.97021" width="19.64" height="19.64" rx="2.41325" stroke="#294F74"/>
<path fill-rule="evenodd" clip-rule="evenodd" d="M7.93131 8.5047C8.33759 8.5047 8.72723 8.3433 9.01452 8.05602C9.3018 7.76873 9.4632 7.37909 9.4632 6.97281C9.4632 6.56653 9.3018 6.17688 9.01452 5.8896C8.72723 5.60231 8.33759 5.44092 7.93131 5.44092C7.52502 5.44092 7.13538 5.60231 6.84809 5.8896C6.56081 6.17688 6.39941 6.56653 6.39941 6.97281C6.39941 7.37909 6.56081 7.76873 6.84809 8.05602C7.13538 8.3433 7.52502 8.5047 7.93131 8.5047ZM9.21322 18.1396V9.70586H6.64939V18.1396H9.21322ZM10.9156 9.70586H13.4794V10.8352C13.8576 10.243 14.6883 9.44563 16.233 9.44563C18.0764 9.44563 19.0776 10.6673 19.0776 12.9914C19.0776 13.1029 19.0878 13.6119 19.0878 13.6119V18.1383H16.524V13.6131C16.524 12.9914 16.3932 11.7697 15.0113 11.7697C13.6281 11.7697 13.5115 13.3055 13.4794 14.3105V18.1383H10.9156V9.70586Z" fill="#294F74"/>
<path d="M9.21322 18.1396V9.70586H6.64939V18.1396H9.21322Z" fill="#294F74"/>
<path d="M10.9156 9.70586H13.4794V10.8352C13.8576 10.243 14.6883 9.44563 16.233 9.44563C18.0764 9.44563 19.0776 10.6673 19.0776 12.9914C19.0776 13.1029 19.0878 13.6119 19.0878 13.6119V18.1383H16.524V13.6131C16.524 12.9914 16.3932 11.7697 15.0113 11.7697C13.6281 11.7697 13.5115 13.3055 13.4794 14.3105V18.1383H10.9156V9.70586Z" fill="#294F74"/>
<path d="M7.93131 8.5047C8.33759 8.5047 8.72723 8.3433 9.01452 8.05602C9.3018 7.76873 9.4632 7.37909 9.4632 6.97281C9.4632 6.56653 9.3018 6.17688 9.01452 5.8896C8.72723 5.60231 8.33759 5.44092 7.93131 5.44092C7.52502 5.44092 7.13538 5.60231 6.84809 5.8896C6.56081 6.17688 6.39941 6.56653 6.39941 6.97281C6.39941 7.37909 6.56081 7.76873 6.84809 8.05602C7.13538 8.3433 7.52502 8.5047 7.93131 8.5047Z" fill="#294F74"/>
</svg>
