<svg width="343" height="58" viewBox="0 0 343 58" fill="none" xmlns="http://www.w3.org/2000/svg">
<path fill-rule="evenodd" clip-rule="evenodd" d="M0.507812 23.1789C0.507812 37.2206 9.77937 46.3577 24.6945 46.3577C39.9455 46.3577 49.1499 37.2206 49.1499 23.1789C49.1499 9.13717 39.9455 0 24.6945 0C9.77937 0 0.507812 9.13717 0.507812 23.1789ZM38.4003 23.1789C38.4003 33.1894 34.5707 36.6831 24.6945 36.6831C14.8183 36.6831 11.1903 33.1894 11.1903 23.1789C11.1903 13.1683 14.8183 9.67466 24.6945 9.67466C34.5707 9.67466 38.4003 13.1683 38.4003 23.1789ZM52.8729 57.1073H62.9507V36.6159H63.421C64.5631 42.5282 68.863 46.3577 76.6565 46.3577C86.8014 46.3577 92.445 39.572 92.445 28.8896C92.445 18.2072 86.6671 11.3543 76.3206 11.3543C68.3927 11.3543 64.0928 14.7807 62.8835 21.2305H62.2117V12.0261H52.8729V57.1073ZM72.7597 37.1534C66.4443 37.1534 62.9507 35.1378 62.9507 29.3599V28.8224C62.9507 22.8429 66.31 20.6258 72.8269 20.6258C79.2095 20.6258 82.2328 22.7086 82.2328 28.8896C82.2328 35.0034 79.2095 37.1534 72.7597 37.1534ZM113.835 46.3577C102.615 46.3577 94.9555 40.8485 94.9555 28.8896C94.9555 18.14 102.547 11.3543 113.633 11.3543C124.651 11.3543 131.975 17.1322 131.975 27.6803C131.975 28.6988 131.879 29.4791 131.769 30.3824L131.769 30.384L131.768 30.3875C131.748 30.555 131.727 30.7268 131.706 30.9052H104.294C104.563 36.0784 106.982 38.2955 113.499 38.2955C119.478 38.2955 121.561 36.7503 121.561 33.8613V33.1894H131.639V33.9285C131.639 41.2517 124.517 46.3577 113.835 46.3577ZM113.431 19.2149C107.452 19.2149 104.899 21.2305 104.429 25.5975H122.3C122.031 21.1633 119.344 19.2149 113.431 19.2149ZM135.576 45.6859H145.654V28.688C145.654 22.9773 147.938 20.4243 154.321 20.4243C160.502 20.4243 162.719 22.7086 162.719 28.0834V45.6859H172.797V24.7241C172.797 17.2666 168.43 11.3543 159.226 11.3543C150.424 11.3543 146.393 16.7291 145.52 22.3726H144.915V12.0261H135.576V45.6859ZM249.004 46.3573C237.515 46.3573 229.789 39.5045 229.789 28.8892C229.789 18.1396 237.515 11.3539 249.004 11.3539C260.492 11.3539 268.219 18.1396 268.219 28.8892C268.219 39.5045 260.492 46.3573 249.004 46.3573ZM249.004 37.4217C255.789 37.4217 258.208 34.8015 258.208 28.8892C258.208 22.9769 255.789 20.2223 249.004 20.2223C242.151 20.2223 239.799 22.9769 239.799 28.8892C239.799 34.8015 242.151 37.4217 249.004 37.4217ZM281.74 45.6855H271.662V12.0257H281.001V20.9614H281.606C282.546 15.5194 286.107 11.3539 292.893 11.3539C300.418 11.3539 303.508 16.5271 303.508 23.1113V28.6877H293.43V25.194C293.43 21.4988 291.952 19.8864 287.854 19.8864C283.352 19.8864 281.74 21.9691 281.74 26.2018V45.6855ZM305.478 28.8892C305.478 40.8482 313.137 46.3573 324.357 46.3573C335.039 46.3573 342.161 41.2513 342.161 33.9281V33.1891H332.083V33.8609C332.083 36.7499 330.001 38.2951 324.021 38.2951C317.504 38.2951 315.085 36.078 314.817 30.9048H342.228C342.238 30.8228 342.247 30.7422 342.257 30.6628C342.269 30.5678 342.28 30.4746 342.291 30.3826C342.402 29.4791 342.497 28.6987 342.497 27.6799C342.497 17.1318 335.174 11.3539 324.155 11.3539C313.07 11.3539 305.478 18.1396 305.478 28.8892ZM314.951 25.5971C315.421 21.2301 317.974 19.2145 323.954 19.2145C329.866 19.2145 332.554 21.1629 332.822 25.5971H314.951Z" fill="#294F74"/>
<path fill-rule="evenodd" clip-rule="evenodd" d="M178.027 24.2433C178.027 38.4885 187.365 47.7581 202.428 47.7581C216.673 47.7581 225.739 40.6696 225.739 29.0826C225.739 28.5179 225.281 28.0602 224.716 28.0602H215.378C214.814 28.0602 214.356 28.5179 214.356 29.0826C214.356 35.0806 210.948 37.9432 202.633 37.9432C192.613 37.9432 187.87 34.495 187.87 24.3393C187.87 14.1837 192.613 10.5434 202.633 10.5434C210.948 10.5434 214.356 13.4061 214.356 19.404C214.356 19.9687 214.814 20.4264 215.378 20.4264H224.716C225.281 20.4264 225.739 19.9687 225.739 19.404C225.739 7.81703 216.605 0.728516 202.428 0.728516C187.365 0.728516 178.027 9.99811 178.027 24.2433Z" fill="#294F74"/>
<path d="M195.168 24.2431C195.168 19.2919 196.996 17.564 201.88 17.564C206.765 17.564 208.593 19.2919 208.593 24.2431C208.593 29.1943 206.765 30.9223 201.88 30.9223C196.996 30.9223 195.168 29.1943 195.168 24.2431Z" fill="#294F74"/>
</svg>