<svg width="16" height="17" viewBox="0 0 16 17" fill="none" xmlns="http://www.w3.org/2000/svg">
<path d="M8.79335 6.6531C9.22657 6.85994 9.60382 7.16772 9.89342 7.55059C10.183 7.93347 10.3765 8.38025 10.4576 8.8534C10.5388 9.32656 10.5052 9.81228 10.3596 10.2698C10.2141 10.7272 9.96093 11.1431 9.62135 11.4824L6.62135 14.4824C6.05874 15.045 5.29567 15.3611 4.50002 15.3611C3.70436 15.3611 2.9413 15.045 2.37869 14.4824C1.81607 13.9198 1.5 13.1568 1.5 12.3611C1.5 11.5654 1.81607 10.8024 2.37869 10.2398L3.55002 9.06844M12.45 8.65377L13.6213 7.48244C14.184 6.91982 14.5 6.15676 14.5 5.3611C14.5 4.56545 14.184 3.80238 13.6213 3.23977C13.0587 2.67716 12.2957 2.36108 11.5 2.36108C10.7044 2.36108 9.9413 2.67716 9.37868 3.23977L6.37868 6.23977C6.03911 6.5791 5.78593 6.99498 5.64041 7.45245C5.49488 7.90992 5.46127 8.39564 5.5424 8.8688C5.62352 9.34196 5.81701 9.78874 6.10661 10.1716C6.39621 10.5545 6.77347 10.8623 7.20669 11.0691" stroke="#667085" stroke-linecap="round" stroke-linejoin="round"/>
</svg>
