<svg width="34" height="25" viewBox="0 0 34 25" fill="none" xmlns="http://www.w3.org/2000/svg">
<path fill-rule="evenodd" clip-rule="evenodd" d="M33.5816 12.4632C33.5816 12.033 33.4108 11.6205 33.1066 11.3164C32.8025 11.0122 32.39 10.8414 31.9598 10.8414H1.68602C1.25589 10.8414 0.843375 11.0122 0.539226 11.3164C0.235078 11.6205 0.064209 12.033 0.064209 12.4632C0.064209 12.8933 0.235078 13.3058 0.539226 13.61C0.843375 13.9141 1.25589 14.085 1.68602 14.085H31.9598C32.39 14.085 32.8025 13.9141 33.1066 13.61C33.4108 13.3058 33.5816 12.8933 33.5816 12.4632ZM33.5816 1.65111C33.5816 1.22098 33.4108 0.808463 33.1066 0.504314C32.8025 0.200166 32.39 0.0292969 31.9598 0.0292969H1.68602C1.25589 0.0292969 0.843375 0.200166 0.539226 0.504314C0.235078 0.808463 0.064209 1.22098 0.064209 1.65111C0.064209 2.08124 0.235078 2.49375 0.539226 2.7979C0.843375 3.10205 1.25589 3.27292 1.68602 3.27292H31.9598C32.39 3.27292 32.8025 3.10205 33.1066 2.7979C33.4108 2.49375 33.5816 2.08124 33.5816 1.65111ZM33.5816 23.2753C33.5816 22.8451 33.4108 22.4326 33.1066 22.1285C32.8025 21.8243 32.39 21.6534 31.9598 21.6534H1.68602C1.25589 21.6534 0.843375 21.8243 0.539226 22.1285C0.235078 22.4326 0.064209 22.8451 0.064209 23.2753C0.064209 23.7054 0.235078 24.1179 0.539226 24.422C0.843375 24.7262 1.25589 24.8971 1.68602 24.8971H31.9598C32.39 24.8971 32.8025 24.7262 33.1066 24.422C33.4108 24.1179 33.5816 23.7054 33.5816 23.2753Z" fill="#294F74"/>
</svg>
