<svg width="21" height="22" viewBox="0 0 21 22" fill="none" xmlns="http://www.w3.org/2000/svg">
<path d="M19.1821 3.74128L19.787 3.70136C19.7791 3.5826 19.7364 3.4688 19.6642 3.37421C19.592 3.27961 19.4934 3.20842 19.381 3.16955C19.2685 3.13067 19.147 3.12585 19.0318 3.15567C18.9166 3.18549 18.8128 3.24864 18.7333 3.33721L19.1821 3.74128ZM18.5796 7.32108C18.5796 7.16065 18.5159 7.00679 18.4025 6.89335C18.289 6.77991 18.1352 6.71618 17.9748 6.71618C17.8143 6.71618 17.6605 6.77991 17.5471 6.89335C17.4336 7.00679 17.3699 7.16065 17.3699 7.32108H18.5796ZM2.27236 17.0491V16.4442C2.14248 16.444 2.016 16.4857 1.91163 16.563C1.80726 16.6403 1.73054 16.7491 1.69282 16.8734C1.6551 16.9977 1.65839 17.1308 1.70219 17.2531C1.746 17.3754 1.82799 17.4803 1.93605 17.5523L2.27236 17.0491ZM3.47968 3.74128L4.04704 3.52957C4.00581 3.41912 3.93321 3.32313 3.83816 3.2534C3.74311 3.18367 3.62975 3.14323 3.51203 3.13706C3.39431 3.13089 3.27735 3.15926 3.17553 3.21867C3.07371 3.27809 2.99147 3.36596 2.93892 3.4715L3.47968 3.74128ZM8.31137 14.6295L8.73962 15.0565C8.81228 14.9836 8.86513 14.8934 8.89319 14.7944C8.92125 14.6954 8.92358 14.5908 8.89996 14.4907C8.87634 14.3905 8.82756 14.298 8.75822 14.2219C8.68888 14.1459 8.60129 14.0888 8.50372 14.056L8.31137 14.6295ZM17.0505 4.91842L16.6029 5.32491L16.8207 5.56566L17.1413 5.51727L17.0505 4.91842ZM18.5796 3.7812C18.6413 4.72243 18.5833 5.29345 18.4308 5.72414C18.2832 6.14152 18.0244 6.4851 17.5562 6.93394L18.3933 7.80742C18.9232 7.2993 19.3321 6.80086 19.5716 6.12821C19.8051 5.46766 19.8535 4.70307 19.787 3.70136L18.5796 3.7812ZM18.5796 8.20181V7.32108H17.3699V8.20302H18.5796V8.20181ZM10.1236 7.42028V8.58048H11.3333V7.42028H10.1236ZM10.1236 8.58048V9.18538H11.3333V8.58048H10.1236ZM14.4 3.13638C13.8378 3.1367 13.2811 3.24776 12.7618 3.46322C12.2425 3.67867 11.7707 3.99431 11.3734 4.39211C10.9761 4.7899 10.661 5.26207 10.4461 5.78164C10.2312 6.30122 10.1208 6.85803 10.1211 7.42028H11.3309C11.3306 7.0168 11.4097 6.61721 11.5639 6.24433C11.718 5.87146 11.9441 5.53261 12.2292 5.24714C12.5143 4.96167 12.8529 4.73517 13.2256 4.58058C13.5983 4.42599 13.9977 4.34634 14.4012 4.34618V3.13638H14.4ZM17.3687 8.20181C17.3699 13.4233 13.1443 17.654 7.93393 17.654V18.8638C13.8133 18.8638 18.5796 14.0899 18.5796 8.20181H17.3687ZM2.91352 3.953C3.57162 5.70962 6.03948 9.18538 10.7284 9.18538V7.97558C6.71694 7.97558 4.59627 4.99947 4.04584 3.52957L2.91352 3.953ZM2.93892 3.4715C1.67233 6.00723 1.47756 8.46797 2.39817 10.5633C3.31636 12.6527 5.29187 14.2593 8.12023 15.2029L8.50372 14.056C5.89674 13.185 4.24786 11.7671 3.50508 10.0758C2.76472 8.39054 2.87239 6.31331 4.02164 4.01107L2.93892 3.4715ZM7.88313 14.2024C7.15486 14.9319 4.96524 16.4442 2.27236 16.4442V17.654C5.37655 17.654 7.85772 15.9409 8.73962 15.0565L7.88313 14.2024ZM17.4993 4.51313C17.1082 4.07936 16.6303 3.73265 16.0966 3.49547C15.5629 3.25829 14.9852 3.13595 14.4012 3.13638V4.34618C15.2734 4.34618 16.0585 4.72243 16.6029 5.32491L17.4993 4.51313ZM17.1413 5.51727C18.1049 5.35983 18.9849 4.87537 19.6333 4.14535L18.7333 3.33721C18.272 3.85832 17.6461 4.20548 16.9598 4.32077L17.1413 5.51727ZM1.93605 17.5523C3.92123 18.8759 6.00198 18.8638 7.93393 18.8638V17.654C5.96206 17.654 4.24665 17.6407 2.60867 16.5458L1.93605 17.5523Z" fill="#294F74"/>
</svg>